<mxfile host="app.diagrams.net" modified="2023-10-18T15:15:14.236Z" agent="Mozilla/5.0 (Macintosh; Intel Mac OS X 10_15_7) AppleWebKit/537.36 (KHTML, like Gecko) Chrome/117.0.0.0 Safari/537.36" etag="1i1pX7sO1OATNpxDXx5I" version="22.0.4" type="github">
  <diagram name="Page-1" id="tLUKC1qzw2Slo4-duKms">
    <mxGraphModel dx="2074" dy="790" grid="1" gridSize="10" guides="1" tooltips="1" connect="1" arrows="1" fold="1" page="1" pageScale="1" pageWidth="850" pageHeight="1100" math="0" shadow="0">
      <root>
        <mxCell id="0" />
        <mxCell id="1" parent="0" />
        <mxCell id="wwumjlqmDL7pZVhDalBl-24" style="edgeStyle=orthogonalEdgeStyle;rounded=0;orthogonalLoop=1;jettySize=auto;html=1;entryX=0;entryY=0.5;entryDx=0;entryDy=0;entryPerimeter=0;strokeWidth=2;" edge="1" parent="1" source="wwumjlqmDL7pZVhDalBl-1" target="wwumjlqmDL7pZVhDalBl-18">
          <mxGeometry relative="1" as="geometry">
            <mxPoint x="200" y="318" as="targetPoint" />
          </mxGeometry>
        </mxCell>
        <mxCell id="wwumjlqmDL7pZVhDalBl-1" value="API Gateway" style="sketch=0;points=[[0,0,0],[0.25,0,0],[0.5,0,0],[0.75,0,0],[1,0,0],[0,1,0],[0.25,1,0],[0.5,1,0],[0.75,1,0],[1,1,0],[0,0.25,0],[0,0.5,0],[0,0.75,0],[1,0.25,0],[1,0.5,0],[1,0.75,0]];outlineConnect=0;fontColor=#232F3E;fillColor=#8C4FFF;strokeColor=#ffffff;dashed=0;verticalLabelPosition=bottom;verticalAlign=top;align=center;html=1;fontSize=12;fontStyle=0;aspect=fixed;shape=mxgraph.aws4.resourceIcon;resIcon=mxgraph.aws4.api_gateway;" vertex="1" parent="1">
          <mxGeometry x="70" y="288" width="60" height="60" as="geometry" />
        </mxCell>
        <mxCell id="wwumjlqmDL7pZVhDalBl-6" value="getOrderLines" style="sketch=0;outlineConnect=0;fontColor=#232F3E;gradientColor=none;fillColor=#ED7100;strokeColor=none;dashed=0;verticalLabelPosition=bottom;verticalAlign=top;align=center;html=1;fontSize=11;fontStyle=0;aspect=fixed;pointerEvents=1;shape=mxgraph.aws4.lambda_function;" vertex="1" parent="1">
          <mxGeometry x="490" y="330" width="40" height="40" as="geometry" />
        </mxCell>
        <mxCell id="wwumjlqmDL7pZVhDalBl-7" value="createOrderLine" style="sketch=0;outlineConnect=0;fontColor=#232F3E;gradientColor=none;fillColor=#ED7100;strokeColor=none;dashed=0;verticalLabelPosition=bottom;verticalAlign=top;align=center;html=1;fontSize=11;fontStyle=0;aspect=fixed;pointerEvents=1;shape=mxgraph.aws4.lambda_function;" vertex="1" parent="1">
          <mxGeometry x="490" y="400" width="40" height="40" as="geometry" />
        </mxCell>
        <mxCell id="wwumjlqmDL7pZVhDalBl-8" value="updateOrderLine" style="sketch=0;outlineConnect=0;fontColor=#232F3E;gradientColor=none;fillColor=#ED7100;strokeColor=none;dashed=0;verticalLabelPosition=bottom;verticalAlign=top;align=center;html=1;fontSize=11;fontStyle=0;aspect=fixed;pointerEvents=1;shape=mxgraph.aws4.lambda_function;" vertex="1" parent="1">
          <mxGeometry x="580" y="330" width="40" height="40" as="geometry" />
        </mxCell>
        <mxCell id="wwumjlqmDL7pZVhDalBl-9" value="deleteOrderLine" style="sketch=0;outlineConnect=0;fontColor=#232F3E;gradientColor=none;fillColor=#ED7100;strokeColor=none;dashed=0;verticalLabelPosition=bottom;verticalAlign=top;align=center;html=1;fontSize=11;fontStyle=0;aspect=fixed;pointerEvents=1;shape=mxgraph.aws4.lambda_function;" vertex="1" parent="1">
          <mxGeometry x="580" y="400" width="40" height="40" as="geometry" />
        </mxCell>
        <mxCell id="wwumjlqmDL7pZVhDalBl-10" value="getMeals" style="sketch=0;outlineConnect=0;fontColor=#232F3E;gradientColor=none;fillColor=#ED7100;strokeColor=none;dashed=0;verticalLabelPosition=bottom;verticalAlign=top;align=center;html=1;fontSize=11;fontStyle=0;aspect=fixed;pointerEvents=1;shape=mxgraph.aws4.lambda_function;" vertex="1" parent="1">
          <mxGeometry x="490" y="580" width="40" height="40" as="geometry" />
        </mxCell>
        <mxCell id="wwumjlqmDL7pZVhDalBl-11" value="getMealsByCategory" style="sketch=0;outlineConnect=0;fontColor=#232F3E;gradientColor=none;fillColor=#ED7100;strokeColor=none;dashed=0;verticalLabelPosition=bottom;verticalAlign=top;align=center;html=1;fontSize=11;fontStyle=0;aspect=fixed;pointerEvents=1;shape=mxgraph.aws4.lambda_function;" vertex="1" parent="1">
          <mxGeometry x="530" y="650" width="40" height="40" as="geometry" />
        </mxCell>
        <mxCell id="wwumjlqmDL7pZVhDalBl-12" value="getMealsBySeller" style="sketch=0;outlineConnect=0;fontColor=#232F3E;gradientColor=none;fillColor=#ED7100;strokeColor=none;dashed=0;verticalLabelPosition=bottom;verticalAlign=top;align=center;html=1;fontSize=11;fontStyle=0;aspect=fixed;pointerEvents=1;shape=mxgraph.aws4.lambda_function;" vertex="1" parent="1">
          <mxGeometry x="580" y="580" width="40" height="40" as="geometry" />
        </mxCell>
        <mxCell id="wwumjlqmDL7pZVhDalBl-29" style="edgeStyle=orthogonalEdgeStyle;rounded=0;orthogonalLoop=1;jettySize=auto;html=1;strokeWidth=2;" edge="1" parent="1" source="wwumjlqmDL7pZVhDalBl-15" target="wwumjlqmDL7pZVhDalBl-20">
          <mxGeometry relative="1" as="geometry" />
        </mxCell>
        <mxCell id="wwumjlqmDL7pZVhDalBl-15" value="&lt;h2&gt;Order Line Item&lt;/h2&gt;" style="rounded=1;whiteSpace=wrap;html=1;fontColor=#;fillColor=none;dashed=1;strokeWidth=2;glass=0;shadow=0;verticalAlign=top;" vertex="1" parent="1">
          <mxGeometry x="460" y="270" width="200" height="210" as="geometry" />
        </mxCell>
        <mxCell id="wwumjlqmDL7pZVhDalBl-16" value="&lt;h2&gt;Menu&lt;/h2&gt;" style="rounded=1;whiteSpace=wrap;html=1;fontColor=#;fillColor=none;dashed=1;strokeWidth=2;glass=0;shadow=0;verticalAlign=top;" vertex="1" parent="1">
          <mxGeometry x="460" y="530" width="200" height="200" as="geometry" />
        </mxCell>
        <mxCell id="wwumjlqmDL7pZVhDalBl-17" value="" style="group" vertex="1" connectable="0" parent="1">
          <mxGeometry x="460" y="10" width="180" height="210" as="geometry" />
        </mxCell>
        <mxCell id="wwumjlqmDL7pZVhDalBl-2" value="getOrder" style="sketch=0;outlineConnect=0;fontColor=#232F3E;gradientColor=none;fillColor=#ED7100;strokeColor=none;dashed=0;verticalLabelPosition=bottom;verticalAlign=top;align=center;html=1;fontSize=11;fontStyle=0;aspect=fixed;pointerEvents=1;shape=mxgraph.aws4.lambda_function;" vertex="1" parent="wwumjlqmDL7pZVhDalBl-17">
          <mxGeometry x="30" y="60" width="40" height="40" as="geometry" />
        </mxCell>
        <mxCell id="wwumjlqmDL7pZVhDalBl-3" value="createOrder" style="sketch=0;outlineConnect=0;fontColor=#232F3E;gradientColor=none;fillColor=#ED7100;strokeColor=none;dashed=0;verticalLabelPosition=bottom;verticalAlign=top;align=center;html=1;fontSize=11;fontStyle=0;aspect=fixed;pointerEvents=1;shape=mxgraph.aws4.lambda_function;" vertex="1" parent="wwumjlqmDL7pZVhDalBl-17">
          <mxGeometry x="30" y="130" width="40" height="40" as="geometry" />
        </mxCell>
        <mxCell id="wwumjlqmDL7pZVhDalBl-4" value="updateOrder" style="sketch=0;outlineConnect=0;fontColor=#232F3E;gradientColor=none;fillColor=#ED7100;strokeColor=none;dashed=0;verticalLabelPosition=bottom;verticalAlign=top;align=center;html=1;fontSize=11;fontStyle=0;aspect=fixed;pointerEvents=1;shape=mxgraph.aws4.lambda_function;" vertex="1" parent="wwumjlqmDL7pZVhDalBl-17">
          <mxGeometry x="110" y="60" width="40" height="40" as="geometry" />
        </mxCell>
        <mxCell id="wwumjlqmDL7pZVhDalBl-5" value="deleteOrder" style="sketch=0;outlineConnect=0;fontColor=#232F3E;gradientColor=none;fillColor=#ED7100;strokeColor=none;dashed=0;verticalLabelPosition=bottom;verticalAlign=top;align=center;html=1;fontSize=11;fontStyle=0;aspect=fixed;pointerEvents=1;shape=mxgraph.aws4.lambda_function;" vertex="1" parent="wwumjlqmDL7pZVhDalBl-17">
          <mxGeometry x="110" y="130" width="40" height="40" as="geometry" />
        </mxCell>
        <mxCell id="wwumjlqmDL7pZVhDalBl-14" value="&lt;h2&gt;Orders&lt;/h2&gt;" style="rounded=1;whiteSpace=wrap;html=1;fontColor=#;fillColor=none;dashed=1;strokeWidth=2;glass=0;shadow=0;align=center;verticalAlign=top;" vertex="1" parent="wwumjlqmDL7pZVhDalBl-17">
          <mxGeometry width="180" height="210" as="geometry" />
        </mxCell>
        <mxCell id="wwumjlqmDL7pZVhDalBl-25" style="edgeStyle=orthogonalEdgeStyle;rounded=0;orthogonalLoop=1;jettySize=auto;html=1;entryX=0;entryY=0.5;entryDx=0;entryDy=0;strokeWidth=2;" edge="1" parent="1" source="wwumjlqmDL7pZVhDalBl-18" target="wwumjlqmDL7pZVhDalBl-14">
          <mxGeometry relative="1" as="geometry">
            <Array as="points">
              <mxPoint x="310" y="318" />
              <mxPoint x="310" y="115" />
            </Array>
          </mxGeometry>
        </mxCell>
        <mxCell id="wwumjlqmDL7pZVhDalBl-32" value="/orders&lt;br style=&quot;font-size: 16px;&quot;&gt;&lt;div style=&quot;font-size: 16px;&quot;&gt;/orders/{order_id}&lt;/div&gt;" style="edgeLabel;html=1;align=left;verticalAlign=middle;resizable=0;points=[];fontSize=16;fontColor=default;labelBackgroundColor=default;" vertex="1" connectable="0" parent="wwumjlqmDL7pZVhDalBl-25">
          <mxGeometry x="0.6691" y="1" relative="1" as="geometry">
            <mxPoint x="-73" y="-44" as="offset" />
          </mxGeometry>
        </mxCell>
        <mxCell id="wwumjlqmDL7pZVhDalBl-18" value="Cognito" style="sketch=0;points=[[0,0,0],[0.25,0,0],[0.5,0,0],[0.75,0,0],[1,0,0],[0,1,0],[0.25,1,0],[0.5,1,0],[0.75,1,0],[1,1,0],[0,0.25,0],[0,0.5,0],[0,0.75,0],[1,0.25,0],[1,0.5,0],[1,0.75,0]];outlineConnect=0;fontColor=#232F3E;fillColor=#DD344C;strokeColor=#ffffff;dashed=0;verticalLabelPosition=bottom;verticalAlign=top;align=center;html=1;fontSize=12;fontStyle=0;aspect=fixed;shape=mxgraph.aws4.resourceIcon;resIcon=mxgraph.aws4.cognito;" vertex="1" parent="1">
          <mxGeometry x="200" y="289" width="58" height="58" as="geometry" />
        </mxCell>
        <mxCell id="wwumjlqmDL7pZVhDalBl-20" value="Orders" style="sketch=0;points=[[0,0,0],[0.25,0,0],[0.5,0,0],[0.75,0,0],[1,0,0],[0,1,0],[0.25,1,0],[0.5,1,0],[0.75,1,0],[1,1,0],[0,0.25,0],[0,0.5,0],[0,0.75,0],[1,0.25,0],[1,0.5,0],[1,0.75,0]];outlineConnect=0;fontColor=#232F3E;fillColor=#C925D1;strokeColor=#ffffff;dashed=0;verticalLabelPosition=bottom;verticalAlign=top;align=center;html=1;fontSize=12;fontStyle=0;aspect=fixed;shape=mxgraph.aws4.resourceIcon;resIcon=mxgraph.aws4.dynamodb;" vertex="1" parent="1">
          <mxGeometry x="740" y="200" width="78" height="78" as="geometry" />
        </mxCell>
        <mxCell id="wwumjlqmDL7pZVhDalBl-21" value="Menu" style="sketch=0;points=[[0,0,0],[0.25,0,0],[0.5,0,0],[0.75,0,0],[1,0,0],[0,1,0],[0.25,1,0],[0.5,1,0],[0.75,1,0],[1,1,0],[0,0.25,0],[0,0.5,0],[0,0.75,0],[1,0.25,0],[1,0.5,0],[1,0.75,0]];outlineConnect=0;fontColor=#232F3E;fillColor=#C925D1;strokeColor=#ffffff;dashed=0;verticalLabelPosition=bottom;verticalAlign=top;align=center;html=1;fontSize=12;fontStyle=0;aspect=fixed;shape=mxgraph.aws4.resourceIcon;resIcon=mxgraph.aws4.dynamodb;" vertex="1" parent="1">
          <mxGeometry x="740" y="572" width="78" height="78" as="geometry" />
        </mxCell>
        <mxCell id="wwumjlqmDL7pZVhDalBl-26" style="edgeStyle=orthogonalEdgeStyle;rounded=0;orthogonalLoop=1;jettySize=auto;html=1;entryX=-0.005;entryY=0.538;entryDx=0;entryDy=0;entryPerimeter=0;strokeWidth=2;" edge="1" parent="1" source="wwumjlqmDL7pZVhDalBl-18" target="wwumjlqmDL7pZVhDalBl-15">
          <mxGeometry relative="1" as="geometry">
            <Array as="points">
              <mxPoint x="310" y="318" />
              <mxPoint x="310" y="383" />
            </Array>
          </mxGeometry>
        </mxCell>
        <mxCell id="wwumjlqmDL7pZVhDalBl-33" value="/orders/{order_id}/lines&lt;br style=&quot;font-size: 15px;&quot;&gt;&lt;div style=&quot;font-size: 15px;&quot;&gt;/orders/{order_id}/lines/{line_id}&lt;/div&gt;" style="edgeLabel;html=1;align=left;verticalAlign=middle;resizable=0;points=[];fontSize=15;" vertex="1" connectable="0" parent="wwumjlqmDL7pZVhDalBl-26">
          <mxGeometry x="0.4662" relative="1" as="geometry">
            <mxPoint x="-148" y="37" as="offset" />
          </mxGeometry>
        </mxCell>
        <mxCell id="wwumjlqmDL7pZVhDalBl-28" style="edgeStyle=orthogonalEdgeStyle;rounded=0;orthogonalLoop=1;jettySize=auto;html=1;entryX=0;entryY=0.25;entryDx=0;entryDy=0;entryPerimeter=0;strokeWidth=2;" edge="1" parent="1" source="wwumjlqmDL7pZVhDalBl-14" target="wwumjlqmDL7pZVhDalBl-20">
          <mxGeometry relative="1" as="geometry" />
        </mxCell>
        <mxCell id="wwumjlqmDL7pZVhDalBl-30" style="edgeStyle=orthogonalEdgeStyle;rounded=0;orthogonalLoop=1;jettySize=auto;html=1;entryX=0;entryY=0.75;entryDx=0;entryDy=0;entryPerimeter=0;strokeWidth=2;" edge="1" parent="1" source="wwumjlqmDL7pZVhDalBl-16" target="wwumjlqmDL7pZVhDalBl-21">
          <mxGeometry relative="1" as="geometry" />
        </mxCell>
        <mxCell id="wwumjlqmDL7pZVhDalBl-31" style="edgeStyle=orthogonalEdgeStyle;rounded=0;orthogonalLoop=1;jettySize=auto;html=1;entryX=0;entryY=0.55;entryDx=0;entryDy=0;entryPerimeter=0;strokeWidth=2;" edge="1" parent="1" source="wwumjlqmDL7pZVhDalBl-1" target="wwumjlqmDL7pZVhDalBl-16">
          <mxGeometry relative="1" as="geometry">
            <Array as="points">
              <mxPoint x="150" y="318" />
              <mxPoint x="150" y="640" />
            </Array>
          </mxGeometry>
        </mxCell>
        <mxCell id="wwumjlqmDL7pZVhDalBl-34" value="/menu&lt;br style=&quot;font-size: 16px;&quot;&gt;/menu/seller/{seller}&lt;br style=&quot;font-size: 16px;&quot;&gt;/menu/category/{category}" style="edgeLabel;html=1;align=left;verticalAlign=middle;resizable=0;points=[];fontSize=16;" vertex="1" connectable="0" parent="wwumjlqmDL7pZVhDalBl-31">
          <mxGeometry x="0.589" y="-1" relative="1" as="geometry">
            <mxPoint x="-76" y="39" as="offset" />
          </mxGeometry>
        </mxCell>
      </root>
    </mxGraphModel>
  </diagram>
</mxfile>
